<?xml version="1.0" encoding="utf-8"?>
<!-- Generator: Adobe Illustrator 25.0.1, SVG Export Plug-In . SVG Version: 6.00 Build 0)  -->
<svg version="1.1" id="Capa_1" xmlns="http://www.w3.org/2000/svg" xmlns:xlink="http://www.w3.org/1999/xlink" x="0px" y="0px"
	 viewBox="0 0 1920 1080" style="enable-background:new 0 0 1920 1080;" xml:space="preserve">
<style type="text/css">
	.st0{fill:#030405;}
	.st1{fill:#888989;}
</style>
<g>
	<path class="st0" d="M606.25,81.47c39.49,0,79.01-1.81,118.47,0.53c33.94,2.03,54.3,51.6,54.9,128.39
		c0.37,48.21,0.3,96.42,0.27,144.63c0,23.17-1.83,45.58-5.98,66.94c-7.87,40.24-22.48,59.64-40.88,66.71
		c-6.08,2.33-12.35,3.08-18.53,3.16c-54.4,0.38-108.8,0.68-163.21,0.38c-5.61,0-7.41,2.48-7.34,16.1
		c0.4,78.45,0.23,156.97,0.53,235.49c0.03,11.43-1.03,15.12-6.38,14.89c-17.37-0.83-34.77-0.75-52.18,0
		c-4.92,0.23-6.08-3.01-6.04-13.84c0.1-128.91,0.03-257.9-0.27-386.81c-0.03-13.99,3.35-11.88,7.07-11.88c70.81,0,141.62,0,212.43,0
		c14.55,0,16.24-3.84,16.24-36.63c0-17.98,0.03-35.88,0-53.85c-0.03-22.34-2.92-28.88-12.89-28.88
		c-71.31-0.08-142.61-0.38-213.92,0.45c-7.9,0.08-9.2-5.19-8.97-21.13c0.53-36.4,0.33-72.88,0.07-109.28
		c-0.1-12.49,1.3-16.92,7.37-16.85c39.76,0.68,79.51,0.38,119.27,0.38C606.25,80.64,606.25,81.02,606.25,81.47z"/>
	<path class="st0" d="M265.26,758.3c-29.56,0-59.12-0.08-88.68,0c-9.8,0-19.3-3.38-28.36-11.73
		c-20.76-19.1-30.56-57.24-31.75-104.85c-2.36-95.14-0.76-190.51-1.13-285.8c-0.03-8.65,1.66-10.08,4.95-10.08
		c18.13,0.23,36.27,0.53,54.4-0.15c5.15-0.23,5.45,4.89,5.45,14.06c-0.07,72.88,0.1,145.76,0.17,218.57
		c0.03,29.11,1.83,33.39,14.41,33.39c47.46,0,94.89,0,142.35,0c12.06,0,13.92-4.14,13.95-30.99c0.03-25.2-0.23-50.47,0.13-75.66
		c0.13-10.38-1.13-13.09-5.75-12.94c-24.34,0.53-48.69-0.15-73.03,0.6c-5.51,0.15-7.11-2.71-6.97-15.57
		c0.43-38.66,0.43-77.39,0-116.05c-0.17-13.31,1.86-15.49,7.14-15.42c45.47,0.45,90.9,0.45,136.37,0c5.18-0.08,7.21,1.65,7.14,15.12
		c-0.33,85.74-0.17,171.56-0.17,257.3c0,16.92-1.06,33.47-2.99,49.79c-6.71,56.26-25.34,87.92-55.23,89.58
		c-30.79,1.65-61.61,0.38-92.4,0.38C265.26,758.07,265.26,758.22,265.26,758.3z"/>
	<path class="st0" d="M265.46,226.63c-47.66,0-95.35-0.23-143.01,0.3c-5.95,0.08-7.37-2.93-6.87-16.7
		c1.69-45.65,7.37-85.82,26.07-110.56c11.96-15.79,25.27-19.33,38.76-19.33c76.49-0.23,152.94,0,229.43-0.38
		c4.75,0,6.31,2.41,6.21,13.76c-0.33,39.19-0.37,78.45,0,117.63c0.13,12.41-1.2,15.64-6.84,15.57
		C361.28,226.4,313.35,226.63,265.46,226.63z"/>
	<path class="st1" d="M1281.56,838.62c-21.36,0-42.71,0.08-64.1,0c-10.66,0-11.69-2.48-11.43-25.65c0.07-6.17,0-12.33-0.07-18.5
		c-0.2-20.46,1.96-25.57,11.33-25.5c29.06,0.08,58.12,0.3,87.18,0.6c3.95,0.08,7.9,1.65,11.86,1.58
		c8.93-0.08,11.56-6.09,11.86-25.87c0.63-41.59-1.26-43.92-19.63-42.49c-23.58,1.81-47.19,0.53-70.78,0.68
		c-6.94,0.08-13.92,0.83-20.86,0.53c-8.5-0.45-10.96-6.32-10.96-25.65c-0.07-52.12-0.07-104.24,0-156.37
		c0.03-20.76,2.36-25.57,11.52-25.5c40.72,0.23,81.47,0.45,122.19,0.6c18.4,0.08,18.4-0.08,18.73,41.82
		c0.17,20.68-2.52,27.68-11.72,27.68c-31.05,0-62.11-0.53-93.13-0.75c-3.22,0-6.44,0.08-9.66,0.38c-2.66,0.23-5.15,2.63-6.08,8.2
		c-2.92,17.3-3.22,35.42-0.07,52.27c2.06,11.21,7.64,8.42,11.99,8.35c31.78-0.08,63.57-0.38,95.39-0.6c1.99,0,3.99-0.23,5.95,0.15
		c4.62,0.9,7.27,6.24,7.27,17.3c-0.03,56.63,0,113.19-0.1,169.83c-0.03,17.07-5.68,17.3-11.06,17.3c-20.13,0-40.25-0.08-60.35-0.15
		C1285.01,838.62,1283.28,838.62,1281.56,838.62z"/>
	<path class="st1" d="M921.67,838.92c-21.62,0-43.21-0.08-64.83,0.08c-9.33,0.08-11.52-4.36-11.52-25.27
		c-0.03-95.89-0.03-191.71,0-287.61c0-25.27,2.06-29.93,13.58-29.86c38.99,0.15,77.98,0.45,116.97,0.68c4.72,0,9.43-0.45,14.12,0.3
		c5.21,0.83,8.14,6.84,7.64,19.78c-0.33,8.87-0.4,17.98,0,26.85c0.7,16.32-2.76,22.34-9.53,22.26c-31.78-0.3-63.57-0.38-95.39-0.6
		c-1.49,0-2.99-0.23-4.48-0.15c-10.16,0.45-12.92,6.17-12.89,28.96c0.03,26.85,0.66,53.7,0.7,80.55c0,23.47-0.63,47.01-0.7,70.47
		c-0.03,19.86,1.83,23.92,10.4,23.99c24.08,0.15,48.19-0.23,72.27,0.23c7.01,0.15,10.3-5.94,9.4-22.11
		c-0.13-2.18-0.13-4.51-0.07-6.69c0.73-39.71,0.27-37.61-16.54-37.46c-10.69,0.08-21.36,0.23-32.05,0.23
		c-8.3,0-10.5-5.94-9.83-24.44c0.3-8.27,0.2-16.77-0.17-25.12c-0.53-12.56,1.59-19.63,7.31-19.71c24.58-0.15,49.19-0.15,73.76,0
		c5.02,0,7.77,5.49,7.74,17.6c-0.07,56.03-0.1,112.07,0.03,168.17c0.03,15.49-3.92,18.65-9.63,18.58
		c-22.12-0.15-44.21-0.08-66.32-0.08C921.67,838.7,921.67,838.85,921.67,838.92z"/>
	<path class="st1" d="M1825.71,496.94c22.09,0,44.21-0.08,66.29,0c8.64,0.08,9.93,2.93,9.96,22.34c0.03,53.25,0.07,106.42,0,159.67
		c-0.03,20.83-1.56,24.22-10.89,24.37c-13.42,0.15-26.8-0.08-40.22,0.15c-2.06,0-4.98-2.48-5.94,3.53
		c-0.9,5.72,1.96,8.42,3.42,11.73c8.34,18.43,16.67,36.78,25.21,54.75c7.27,15.27,7.31,22.94-0.37,37.61
		c-0.93,1.8-1.93,3.53-2.79,5.57c-9.53,21.81-9.57,21.66-19.13,0.45c-15.21-33.77-30.49-67.46-45.73-101.08
		c-2.13-4.74-4.42-8.95-7.17-11.73c-9.86-10-17.77-0.08-18.17,24.29c-0.46,28.51-0.13,57.16-0.2,85.74
		c-0.03,22.11-1.56,25.27-11.29,24.44c-1.73-0.15-3.45-0.6-5.21-0.53c-14.48,0.3-14.21,0.3-14.18-33.54
		c0.07-93.56-0.07-187.13-0.23-280.69c-0.03-23.77,1.06-26.85,11.86-26.85C1782.5,496.94,1804.08,496.94,1825.71,496.94z
		 M1823.98,634.35c0-0.08,0-0.08,0-0.15c9.2,0,18.37-0.15,27.57,0c20.13,0.38,19.99,0.68,19.83-43.92
		c-0.07-21.44-1.56-24.97-11.13-24.9c-23.08,0.23-46.17,0.23-69.25,0.15c-9.63,0-11.33,3.76-11.03,25.05c0.1,6.69,0.1,13.46,0,20.16
		c-0.3,21.44,0.6,23.62,9.76,23.54C1801.13,634.35,1812.55,634.35,1823.98,634.35z"/>
	<path class="st1" d="M1644.2,838.62c-21.59,0-43.18,0.08-64.8,0c-8.3-0.08-10.73-5.04-10.73-23.92c0-98.6,0.1-197.13,0.3-295.73
		c0.03-18.58,2.69-22.71,12.82-22.71c37.46,0.23,74.96,0.45,112.42,0.68c5.21,0,10.43-0.6,15.61-0.6
		c9.47,0.08,11.92,5.42,11.92,26.93c-0.03,62.73-0.23,125.45-0.27,188.18c0,33.62,0.27,67.24,0.23,100.78
		c0,21.06-2.76,26.78-12.06,26.78c-21.85-0.08-43.67,0-65.53,0C1644.2,838.85,1644.2,838.77,1644.2,838.62z M1645.26,566.06
		c0-0.08,0-0.15,0-0.3c-11.92,0-23.81,0.3-35.74-0.15c-6.64-0.23-10.13,4.74-10.06,21.28c0.23,54.3,0.17,108.61,0.03,162.98
		c-0.03,14.37,2.56,19.93,8.9,19.78c24.81-0.38,49.62-0.23,74.43,0.15c5.58,0.08,8.3-4.96,8.3-17.67
		c-0.03-55.96-0.03-111.99,0.03-167.95c0.03-13.61-2.76-18.65-8.73-18.35C1670.07,566.51,1657.65,566.06,1645.26,566.06z"/>
	<path class="st1" d="M1210.38,276.49c0-48.74-0.03-97.47,0-146.21c0.03-20.68,1.59-24.44,10.93-24.22
		c16.61,0.3,33.25,1.65,49.85,1.58c26.3-0.15,52.61-1.2,78.88-1.65c11.39-0.23,12.65,3.23,12.62,29.03
		c-0.07,95.22-0.03,190.51-0.03,285.73c0,25.57-1.3,28.2-12.35,25.87c-1.23-0.23-2.49-0.23-3.72-0.23
		c-13.95,0.23-13.95,0.23-13.95-32.42c0-26.93-0.17-53.78,0.07-80.7c0.13-15.79-2.99-22.34-9.83-22.26
		c-23.81,0.23-47.66-0.08-71.47,0.15c-8.77,0.08-10.76,5.04-10.76,25.27c-0.03,28.58,0,57.16,0,85.74c0,24.59-1.49,27.6-12.09,24.97
		c-2.46-0.6-4.98-0.98-7.41-0.53c-9.57,1.8-10.66-0.23-10.69-22.41C1210.35,375.09,1210.38,325.75,1210.38,276.49z M1286.17,243.92
		c0-0.15,0-0.3,0-0.38c10.43,0,20.82-0.3,31.25,0.08c14.88,0.45,14.88,0.68,14.98-33.54c0-2.26,0.07-4.44,0.13-6.69
		c0.6-24.67-1.33-30.16-12.45-29.18c-21.79,1.81-43.57,2.41-65.36-0.53c-11.16-1.5-14.75,7.97-14.28,32.94
		c0.1,5.57,0.37,11.28,0.1,16.77c-0.73,15.72,2.69,20.98,9.17,20.76C1261.86,243.62,1274.02,243.92,1286.17,243.92z"/>
	<path class="st1" d="M1025.52,667.29c0-48.81,0-97.55,0-146.36c0-19.93,2.89-25.2,11.86-24.59c42.18,3.01,84.39,2.63,126.61,0.23
		c8.67-0.53,11.26,4.44,11.16,23.84c0,3.38-0.1,6.69-0.1,10.08c0,41.37,0.93,35.27-16.21,35.5c-26.07,0.23-52.18,0.15-78.25,0
		c-4.72,0-9.4-1.65-14.12-1.43c-3.45,0.15-7.57,1.2-8.93,9.55c-2.82,17.15-3.22,35.12-0.37,52.42c1.53,9.25,5.88,10.08,9.6,8.87
		c13.12-4.14,26.3,0.68,39.46-2.11c4.45-0.9,6.64,3.61,7.84,13.54c1.96,16.4,0.03,32.34-0.47,48.36c-0.27,8.27-3.39,7.67-6.28,7.6
		c-13.42-0.45-26.84-0.6-40.25-0.6c-9.27,0-11.23,4.74-11.33,25.87c-0.2,42.49-0.2,42.8,18.23,42.42
		c29.79-0.68,59.62,1.96,89.41-1.43c9.03-0.98,11.92,6.09,11.92,27.08c0.03,40.61-0.73,42.34-18.86,42.34
		c-39.49,0.15-79.01,0.3-118.5,0.38c-10.46,0-12.45-4.74-12.42-28.81C1025.52,762.58,1025.49,714.9,1025.52,667.29z"/>
	<path class="st1" d="M849.76,277.54c0-49.34-0.03-98.68,0-148.02c0-19.56,1.76-23.69,10.5-23.54c17.1,0.3,34.24,1.65,51.35,1.58
		c26.3-0.15,52.61-1.2,78.91-1.65c10.13-0.15,11.49,3.16,11.49,26.32c0,49.87,0,99.73,0,149.67c0,28.28-0.63,29.93-12.92,29.86
		c-31.78-0.15-63.57-0.45-95.35-0.6c-12.16-0.08-14.25,5.19-14.02,32.57c0.23,27.98,0.33,56.03,0.27,84.01
		c-0.03,17.3-2.52,21.89-10.16,19.71c-3.22-0.9-6.41-1.2-9.63-0.38c-8.73,2.33-10.43-1.13-10.43-21.66
		C849.73,376.22,849.76,326.88,849.76,277.54z M925.15,243.92c9.2,0,18.4,0.23,27.57-0.08c19.2-0.6,19.56-1.58,19.3-44.68
		c-0.1-19.93-2.19-25.2-10.96-25.12c-9.93,0.08-19.83,1.58-29.76,1.58c-13.15-0.08-26.3-1.5-39.46-1.58
		c-10.13-0.08-12.39,5.79-11.99,27.83c0.1,6.69,0,13.46-0.03,20.16c-0.17,17.6,1.59,21.74,9.53,21.81
		C901.27,244,913.23,243.92,925.15,243.92z"/>
	<path class="st1" d="M1543.1,276.64c0,49.34,0.03,98.68,0,148.02c-0.03,20.53-2.06,24.29-11.13,22.49c-2.92-0.6-5.95-0.15-8.9,0.45
		c-7.94,1.73-10.2-1.88-10.23-19.56c-0.1-62.8,0.03-125.6,0.07-188.41c0-13.46,0.23-26.93,0.1-40.39
		c-0.2-19.03-2.79-25.2-11.36-25.2c-12.42,0-24.81,1.5-37.23,1.5c-10.16,0.08-20.33-1.43-30.49-1.58
		c-10.96-0.15-13.12,4.96-13.12,29.41c0.03,71.75,0.13,143.5,0.2,215.33c0,25.95-1.76,29.78-13.52,29.56c-1.49,0-2.99,0-4.45-0.38
		c-11.13-2.78-12.19-4.89-12.22-29.93c-0.1-96.42,0.03-192.92-0.1-289.34c-0.03-15.49,2.79-23.62,9.7-22.56
		c34.47,5.34,68.98-3.69,103.46,1.35c9.63,1.43,19.33-1.2,28.99-1.35c8.34-0.15,10.13,3.99,10.16,22.56
		C1543.14,177.96,1543.1,227.3,1543.1,276.64z"/>
	<path class="st1" d="M1030.01,276.79c0-48.74,0.03-97.55,0-146.29c0-22.56,1.86-26.25,12.02-23.62c1.46,0.38,2.96,0.83,4.45,0.6
		c12.75-2.11,14.12,1.05,14.05,29.41c-0.17,70.62-0.23,141.25-0.3,211.87c-0.03,25.87,2.42,32.42,14.02,31.36
		c30.29-2.71,60.58-1.05,90.87-1.5c13.32-0.23,15.11,4.21,14.65,34c-0.07,5.04-0.3,10.08-0.33,15.12
		c-0.03,12.41-2.76,18.58-8.24,18.65c-7.44,0.08-14.91,0.15-22.35,0.15c-35.24,0.15-70.51-0.6-105.75,1.65
		c-11.72,0.75-13.12-3.76-13.02-30.16c0.17-47.08,0.03-94.17,0.03-141.25C1030.07,276.79,1030.04,276.79,1030.01,276.79z"/>
	<path class="st1" d="M1477.67,701.74c0,37,0,74.01,0,111.01c0,20.83-2.29,26.17-11.33,26.17c-1.99,0-3.99-0.23-5.95-0.38
		c-11.03-0.68-12.92-4.89-12.92-29.78c-0.03-71.75,0-143.58,0-215.33c0-25.12-1.3-27.68-12.49-27.45
		c-12.19,0.23-24.34,0.3-36.53,0.3c-7.71,0-9.5-4.29-9.43-22.19c0.03-7.82,0.2-15.72-0.07-23.47c-0.66-18.2,1.89-24.97,10.03-24.22
		c39.22,3.69,78.48,0.53,117.7,1.73c4.42,0.15,8.73-3.16,13.32-0.3c4.02,2.56,5.94,7.07,5.85,16.4c-0.1,11.21-0.27,22.41,0,33.62
		c0.33,13.24-2.52,18.28-8,18.2c-12.92-0.15-25.84,0-38.76-0.23c-9.57-0.23-11.52,3.69-11.56,24.9c-0.07,37,0,74.01,0,111.01
		C1477.54,701.74,1477.61,701.74,1477.67,701.74z"/>
</g>
</svg>
